<svg xmlns="http://www.w3.org/2000/svg" xmlns:xlink="http://www.w3.org/1999/xlink" viewBox="0,0,255.98959,255.98959" width="480px" height="480px"><g fill="none" fill-rule="nonzero" stroke="none" stroke-width="1" stroke-linecap="butt" stroke-linejoin="miter" stroke-miterlimit="10" stroke-dasharray="" stroke-dashoffset="0" font-family="none" font-weight="none" font-size="none" text-anchor="none" style="mix-blend-mode: normal"><g transform="scale(5.33333,5.33333)"><path d="M31.5,9.5c-4,4 -5.7,8.8 -3.7,10.7c1.9,1.9 6.7,0.2 10.7,-3.7c4,-3.9 5.7,-8.8 3.7,-10.7c-1.9,-1.9 -6.7,-0.2 -10.7,3.7z" fill="#ffde7c"></path><path d="M30.2,13.8c0.6,0.5 1.4,0.7 2.3,0.7c2.2,0 4,-1.8 4,-4c0,-0.9 -0.3,-1.6 -0.7,-2.3c-1,0.6 -2,1.5 -3.1,2.5c-1,1.1 -1.8,2.1 -2.5,3.1z" fill="#ffffff"></path><path d="M21,25h-7v-2h7zM29,47v-1c0,-1.1 -0.9,-2 -2,-2c0,0 -9,-0.5 -9,-2c0,-1.5 -2,-1.5 -2,0c0,1.5 -9,2 -9,2c-1.1,0 -2,0.9 -2,2v1c0,0 0,1 12,1c12,0 12,-1 12,-1zM38.4,16.4c-2.8,2.9 -6.1,4.6 -8.4,4.6c-0.8,0 -1.5,-0.2 -2.1,-0.7c0,0 0,0 -0.1,-0.1c0,0 0,0 -0.1,-0.1c-0.1,-0.1 -0.3,-0.3 -0.4,-0.5c-4.5,-5.9 1,-7.2 -5.1,-13.1c0,0 0,0 -0.1,-0.1c-0.7,-0.9 0,-2.9 1.7,-4.6c1.7,-1.7 3.8,-2.5 4.7,-1.7c6,5.9 8.8,0.3 13.7,5.6c1.8,2.2 0.2,6.8 -3.8,10.7zM40.8,7.2c-0.1,-0.1 -0.4,-0.2 -0.8,-0.2c-1.5,0 -4.3,1.2 -7.1,4c-1.7,1.7 -3,3.7 -3.6,5.4c-0.5,1.4 -0.4,2.3 -0.1,2.5c0.1,0.1 0.4,0.2 0.8,0.2c1.5,0 4.3,-1.2 7.1,-4c3.7,-3.8 4.3,-7.3 3.7,-7.9z" fill="#90a4ae"></path><path d="M17,43c-0.6,0 -1,-0.5 -1,-1v-3c0,-0.5 0.4,-1 1,-1c0.5,0 1,0.5 1,1v3c0,0.5 -0.4,1 -1,1z" fill="#455a64"></path><path d="M18,43h-2c-0.5,0 -1,-0.5 -1,-1c0,-0.5 0.4,-1 1,-1h2c0.5,0 1,0.5 1,1c0,0.5 -0.4,1 -1,1z" fill="#455a64"></path><path d="M18.3,28.9l5.5,-7.3c0.2,-0.2 0.2,-0.5 0.2,-0.8l-1.1,-7l2.6,-1.8c-0.1,-0.6 -0.2,-1.3 -0.6,-2.1l-4.5,3.2c-0.1,0.1 -0.2,0.1 -0.2,0.2l-8,10v0.1c0,0.1 -0.1,0.2 -0.1,0.2c0,0 0,0 0,0.1l-2,9c-0.1,0.3 0,0.7 0.3,0.9l6,6c0.2,0.2 0.4,0.3 0.7,0.3c0.2,0 0.4,-0.1 0.5,-0.2l6.1,-4c0.3,-0.2 0.4,-0.4 0.4,-0.7c0,-0.3 -0.1,-0.6 -0.3,-0.8zM14,24.4l7.1,-8.9l0.8,5.3l-5.6,7.5l-2.3,1.1zM16.9,37.5l-4.3,-4.3l4.4,-2.8l3.2,3.1zM25.7,7.7c-0.3,0 -0.5,-0.1 -0.7,-0.3l-1,-1c-0.4,-0.4 -0.4,-1 0,-1.4c0.4,-0.4 1,-0.4 1.4,0l1,1c0.4,0.4 0.4,1 0,1.4c-0.2,0.2 -0.4,0.3 -0.7,0.3zM28.7,4.7c-0.3,0 -0.5,-0.1 -0.7,-0.3l-1,-1c-0.4,-0.4 -0.4,-1 0,-1.4c0.4,-0.4 1,-0.4 1.4,0l1,1c0.4,0.4 0.4,1 0,1.4c-0.2,0.2 -0.4,0.3 -0.7,0.3z" fill="#546e7a"></path></g></g></svg>